<svg width="30" height="33" viewBox="0 0 30 33" fill="none" xmlns="http://www.w3.org/2000/svg">
<path d="M4.66661 10.6444L1.22217 8.75M4.66661 26.1444L1.22217 24.25V19.9444L4.66661 26.1444ZM1.22217 13.0556V8.75L4.66661 6.85556L1.22217 13.0556ZM11.5555 2.89444L14.9999 1L18.4444 2.89444H11.5555ZM25.3333 6.85556L28.7777 8.75V13.0556L25.3333 6.85556ZM28.7777 19.9444V24.25L25.3333 26.1789L28.7777 19.9444ZM18.4444 30.1056L14.9999 32L11.5555 30.1056H18.4444ZM14.9999 16.5L18.4444 14.6056L14.9999 16.5ZM25.3333 10.6444L28.7777 8.75L25.3333 10.6444ZM14.9999 16.5V20.8056V16.5ZM14.9999 27.6944V32V27.6944ZM14.9999 16.5L11.5555 14.5711L14.9999 16.5Z" stroke="white" stroke-width="2" stroke-linecap="round" stroke-linejoin="round"/>
</svg>
