<svg width="32" height="24" viewBox="0 0 32 24" fill="none" xmlns="http://www.w3.org/2000/svg">
<path d="M20.8438 12.5938C20.8438 13.8784 20.3334 15.1104 19.425 16.0188C18.5167 16.9272 17.2846 17.4375 16 17.4375C14.7154 17.4375 13.4833 16.9272 12.575 16.0188C11.6666 15.1104 11.1563 13.8784 11.1562 12.5938C11.1563 11.3091 11.6666 10.0771 12.575 9.1687C13.4833 8.26032 14.7154 7.75 16 7.75C17.2846 7.75 18.5167 8.26032 19.425 9.1687C20.3334 10.0771 20.8438 11.3091 20.8438 12.5938Z" fill="white"/>
<path d="M4.375 3.875C3.34729 3.875 2.36166 4.28326 1.63496 5.00996C0.908258 5.73666 0.5 6.72229 0.5 7.75L0.5 19.375C0.5 20.4027 0.908258 21.3883 1.63496 22.115C2.36166 22.8417 3.34729 23.25 4.375 23.25H27.625C28.6527 23.25 29.6383 22.8417 30.365 22.115C31.0917 21.3883 31.5 20.4027 31.5 19.375V7.75C31.5 6.72229 31.0917 5.73666 30.365 5.00996C29.6383 4.28326 28.6527 3.875 27.625 3.875H25.3542C24.3266 3.87478 23.3412 3.46638 22.6146 2.73962L21.0104 1.13537C20.2838 0.408621 19.2984 0.00021947 18.2708 0H13.7292C12.7016 0.00021947 11.7162 0.408621 10.9896 1.13537L9.38538 2.73962C8.65884 3.46638 7.67338 3.87478 6.64575 3.875H4.375ZM5.34375 7.75C5.08682 7.75 4.84042 7.64794 4.65874 7.46626C4.47706 7.28458 4.375 7.03818 4.375 6.78125C4.375 6.52432 4.47706 6.27792 4.65874 6.09624C4.84042 5.91456 5.08682 5.8125 5.34375 5.8125C5.60068 5.8125 5.84708 5.91456 6.02876 6.09624C6.21044 6.27792 6.3125 6.52432 6.3125 6.78125C6.3125 7.03818 6.21044 7.28458 6.02876 7.46626C5.84708 7.64794 5.60068 7.75 5.34375 7.75ZM22.7812 12.5938C22.7812 14.3922 22.0668 16.1171 20.7951 17.3888C19.5233 18.6605 17.7985 19.375 16 19.375C14.2015 19.375 12.4767 18.6605 11.2049 17.3888C9.9332 16.1171 9.21875 14.3922 9.21875 12.5938C9.21875 10.7953 9.9332 9.07041 11.2049 7.79868C12.4767 6.52695 14.2015 5.8125 16 5.8125C17.7985 5.8125 19.5233 6.52695 20.7951 7.79868C22.0668 9.07041 22.7812 10.7953 22.7812 12.5938Z" fill="white"/>
</svg>
