<svg width="20" height="20" viewBox="0 0 20 20" fill="none" xmlns="http://www.w3.org/2000/svg">
<path d="M17.14 10.54C17.18 10.24 17.2 9.93 17.2 9.6C17.2 9.28 17.18 8.96 17.13 8.66L19.16 7.08C19.2475 7.0079 19.3073 6.9077 19.3292 6.79647C19.351 6.68524 19.3337 6.56987 19.28 6.47L17.36 3.15C17.3035 3.04957 17.2132 2.97238 17.1053 2.93211C16.9973 2.89184 16.8785 2.8911 16.77 2.93L14.38 3.89C13.88 3.51 13.35 3.19 12.76 2.95L12.4 0.410003C12.3823 0.295533 12.3241 0.19121 12.2361 0.115979C12.148 0.0407481 12.0359 -0.000401505 11.92 2.9534e-06H8.08003C7.84003 2.9534e-06 7.65002 0.170003 7.61002 0.410003L7.25003 2.95C6.66003 3.19 6.12003 3.52 5.63003 3.89L3.24003 2.93C3.02003 2.85 2.77003 2.93 2.65003 3.15L0.740025 6.47C0.620025 6.68 0.660025 6.94 0.860025 7.08L2.89003 8.66C2.84003 8.96 2.80003 9.29 2.80003 9.6C2.80003 9.91 2.82003 10.24 2.87003 10.54L0.840025 12.12C0.752549 12.1921 0.692779 12.2923 0.670898 12.4035C0.649016 12.5148 0.666378 12.6301 0.720025 12.73L2.64003 16.05C2.76003 16.27 3.01003 16.34 3.23003 16.27L5.62003 15.31C6.12003 15.69 6.65002 16.01 7.24003 16.25L7.60003 18.79C7.65003 19.03 7.84003 19.2 8.08003 19.2H11.92C12.16 19.2 12.36 19.03 12.39 18.79L12.75 16.25C13.34 16.01 13.88 15.69 14.37 15.31L16.76 16.27C16.98 16.35 17.23 16.27 17.35 16.05L19.27 12.73C19.39 12.51 19.34 12.26 19.15 12.12L17.14 10.54ZM10 13.2C8.02002 13.2 6.40002 11.58 6.40002 9.6C6.40002 7.62 8.02002 6 10 6C11.98 6 13.6 7.62 13.6 9.6C13.6 11.58 11.98 13.2 10 13.2Z" fill="white"/>
</svg>
