<svg width="20" height="21" viewBox="0 0 20 21" fill="none" xmlns="http://www.w3.org/2000/svg">
<path d="M10 0.200195C4.48 0.200195 0 4.6802 0 10.2002C0 15.7202 4.48 20.2002 10 20.2002C15.52 20.2002 20 15.7202 20 10.2002C20 4.6802 15.52 0.200195 10 0.200195ZM10 15.2002C9.45 15.2002 9 14.7502 9 14.2002V10.2002C9 9.6502 9.45 9.2002 10 9.2002C10.55 9.2002 11 9.6502 11 10.2002V14.2002C11 14.7502 10.55 15.2002 10 15.2002ZM10 7.2002C9.45 7.2002 9 6.7502 9 6.2002C9 5.6502 9.45 5.2002 10 5.2002C10.55 5.2002 11 5.6502 11 6.2002C11 6.7502 10.55 7.2002 10 7.2002Z" fill="#6A6A9F"/>
</svg>
