<svg width="21" height="21" viewBox="0 0 21 21" fill="none" xmlns="http://www.w3.org/2000/svg">
<path d="M17.7979 3.0522C16.8419 2.08971 15.7049 1.32597 14.4524 0.805C13.1998 0.284032 11.8565 0.0161461 10.5 0.0167858C4.79081 0.0167858 0.179565 4.64095 0.179565 10.3501C0.179565 16.0593 4.79081 20.6835 10.5 20.6835C15.3179 20.6835 19.335 17.3897 20.4846 12.9335H17.7979C17.2658 14.4441 16.278 15.7524 14.9709 16.6778C13.6637 17.6032 12.1016 18.1002 10.5 18.1001C6.22456 18.1001 2.74998 14.6255 2.74998 10.3501C2.74998 6.0747 6.22456 2.60012 10.5 2.60012C12.6441 2.60012 14.5558 3.49137 15.9508 4.89929L11.7916 9.05845H20.8333V0.0167858L17.7979 3.0522Z" fill="white"/>
</svg>
